<?xml version="1.0" standalone="no"?>
<!DOCTYPE svg PUBLIC "-//W3C//DTD SVG 20010904//EN"
 "http://www.w3.org/TR/2001/REC-SVG-20010904/DTD/svg10.dtd">
<svg version="1.0" xmlns="http://www.w3.org/2000/svg"
 width="360.000000pt" height="360.000000pt" viewBox="0 0 360.000000 360.000000"
 preserveAspectRatio="xMidYMid meet">
<metadata>
Created by potrace 1.15, written by Peter Selinger 2001-2017
</metadata>
<g transform="translate(0.000000,360.000000) scale(0.100000,-0.100000)"
fill="#000000" stroke="none">
<path d="M1824 3489 c-10 -4 -38 -8 -61 -8 -23 -1 -45 -6 -48 -11 -5 -8 -11
-8 -19 0 -24 19 -102 24 -125 8 -19 -13 -27 -13 -59 -2 -43 15 -98 18 -106 5
-10 -15 -75 -22 -96 -11 -15 8 -25 8 -34 1 -7 -6 -49 -11 -92 -10 -244 3 -473
-2 -479 -11 -3 -5 -12 -7 -20 -3 -12 4 -15 -4 -16 -33 -1 -22 0 -43 1 -49 1
-5 2 -21 1 -35 -1 -14 -3 -38 -4 -55 -1 -16 -6 -33 -11 -36 -5 -4 -4 -25 2
-50 6 -26 8 -109 6 -204 -6 -217 -5 -420 2 -458 8 -39 7 -44 -2 -82 -3 -16 -6
-52 -5 -80 2 -52 3 -229 2 -500 -1 -88 2 -173 5 -190 4 -16 6 -34 5 -40 -1 -5
-3 -29 -4 -52 -1 -24 -6 -43 -11 -43 -4 0 -5 -17 0 -37 4 -21 9 -117 10 -213
1 -96 5 -373 8 -615 4 -242 6 -475 6 -517 0 -71 2 -77 23 -84 32 -11 57 -12
63 -3 2 4 24 1 49 -7 29 -11 50 -12 62 -6 10 5 65 7 123 5 136 -7 186 -8 290
-5 47 2 101 2 120 2 19 0 85 -1 145 -1 61 0 133 -1 160 -2 28 -1 88 0 135 1
47 2 99 2 115 2 17 0 86 1 155 4 69 2 260 7 425 10 165 4 328 7 362 8 l62 2 1
95 c1 53 1 132 0 176 0 44 0 98 1 120 1 22 1 213 1 425 -1 212 -1 403 -1 425
2 121 2 498 2 545 -1 56 -4 253 -4 280 1 122 -2 426 -4 460 -2 25 -3 218 -4
430 -1 235 -5 391 -11 400 -12 19 -12 24 -14 -250 -2 -212 -3 -216 -29 -262
-14 -25 -31 -66 -38 -90 -16 -56 -34 -84 -44 -68 -6 9 -10 9 -16 -1 -6 -10
-12 -4 -23 21 -8 19 -25 45 -39 58 l-24 23 23 -87 c13 -48 30 -94 39 -104 11
-12 15 -33 14 -62 -2 -24 1 -49 4 -55 10 -16 -3 -44 -16 -36 -7 4 -8 -2 -2
-18 4 -13 10 -50 14 -81 4 -31 9 -60 13 -63 3 -4 4 11 1 33 -3 25 0 50 11 69
22 44 46 115 46 140 0 24 47 86 60 78 4 -3 5 -26 2 -52 -3 -27 -5 -64 -4 -83
3 -115 2 -136 -9 -162 -11 -27 -9 -111 6 -195 4 -19 0 -44 -8 -60 -11 -22 -12
-43 -4 -103 5 -41 9 -88 9 -105 -1 -16 -2 -56 -2 -87 -1 -32 -5 -60 -11 -63
-5 -4 -9 3 -9 14 0 12 -4 21 -9 21 -5 0 -11 8 -15 18 -3 9 -14 31 -25 47 -11
17 -20 40 -20 53 -1 13 -12 33 -26 46 -14 13 -25 27 -25 32 0 5 -9 17 -20 27
-11 9 -20 28 -20 41 0 18 -6 25 -22 28 -16 2 -24 11 -26 29 -2 17 -11 29 -23
32 -11 3 -19 14 -19 27 0 12 -9 35 -21 51 -11 16 -15 29 -9 29 22 0 105 -43
156 -82 50 -37 53 -43 68 -111 9 -40 21 -79 26 -87 13 -20 13 2 -1 37 -17 45
-27 113 -18 119 20 12 7 43 -26 63 -20 11 -38 27 -41 36 -4 8 -18 15 -33 15
-15 0 -31 4 -36 9 -6 5 -30 12 -54 15 -58 8 -100 46 -93 83 4 20 2 25 -10 21
-22 -9 -38 5 -40 33 -3 50 14 159 25 159 10 1 103 130 93 130 -2 0 -24 -12
-50 -26 l-46 -26 0 24 c0 13 4 38 10 57 9 32 9 33 -12 19 -24 -16 -46 -71 -52
-132 -2 -23 -5 -41 -6 -41 -1 0 -4 -22 -7 -50 -2 -27 -6 -51 -8 -53 -6 -7 -45
23 -45 35 0 6 -5 13 -10 15 -6 2 -13 21 -16 43 -9 61 -13 72 -23 56 -7 -10
-18 -4 -50 24 -41 37 -53 37 -28 0 8 -11 22 -44 32 -72 11 -29 23 -53 28 -53
5 0 7 -6 4 -12 -2 -7 5 -18 17 -25 12 -7 15 -12 9 -13 -17 0 -17 -20 0 -20 12
0 38 -29 62 -69 6 -11 4 -13 -11 -8 -11 4 -4 -7 17 -26 25 -22 35 -39 33 -54
-3 -19 1 -23 20 -23 36 0 55 -10 49 -26 -3 -8 0 -14 6 -14 6 0 11 -7 11 -15 0
-9 11 -26 25 -39 14 -13 25 -28 25 -33 0 -11 48 -58 58 -58 4 0 7 -11 7 -25 0
-14 7 -26 15 -28 16 -3 50 -63 50 -88 0 -9 15 -39 33 -67 39 -60 66 -118 97
-202 12 -33 25 -67 29 -75 4 -8 6 -48 4 -89 -2 -40 1 -104 6 -141 12 -74 7
-107 -13 -91 -7 6 -13 32 -15 58 -1 26 -8 55 -15 63 -22 26 -36 91 -25 112 12
22 2 128 -12 128 -5 0 -9 15 -10 33 0 17 -4 41 -9 52 -7 15 -9 7 -8 -30 3
-133 -13 -151 -34 -37 -6 34 -15 62 -20 62 -4 0 -8 12 -8 26 0 14 -18 56 -40
94 -22 38 -40 75 -40 84 0 8 -4 17 -8 20 -11 7 3 -99 22 -164 9 -30 16 -66 16
-80 0 -14 7 -34 15 -44 8 -11 13 -28 10 -37 -3 -10 1 -34 9 -53 17 -41 16 -41
-50 -21 -70 21 -80 19 -45 -11 17 -14 29 -29 26 -34 -3 -4 7 -11 21 -14 31 -8
104 -76 104 -97 0 -9 9 -23 20 -30 19 -13 19 -18 9 -74 -22 -119 -20 -138 35
-290 14 -38 26 -76 26 -84 0 -7 -28 17 -63 55 -63 67 -63 69 -55 108 17 83 20
115 13 143 -6 26 -8 27 -20 10 -14 -20 -30 -107 -26 -144 4 -35 -8 -27 -30 20
-11 23 -28 56 -38 72 -9 17 -25 44 -34 60 l-17 30 7 -30 c3 -16 19 -59 35 -93
35 -79 35 -82 1 -50 -16 13 -48 35 -73 47 l-44 23 53 -49 c30 -26 63 -51 74
-56 35 -13 11 -19 -33 -7 -56 15 -61 7 -10 -14 l42 -17 -56 -60 c-31 -33 -56
-66 -56 -74 0 -7 -3 -21 -7 -31 -12 -31 47 17 102 85 28 33 54 60 59 60 4 1
26 -17 48 -39 22 -22 44 -40 49 -40 5 0 9 -3 9 -7 0 -5 24 -33 52 -63 48 -51
52 -59 54 -110 4 -86 -8 -94 -59 -40 -23 25 -48 55 -55 65 -12 18 -12 18 -7
-8 3 -15 8 -38 11 -51 4 -17 1 -24 -13 -28 -14 -4 -25 5 -42 36 -33 57 -91
146 -97 146 -2 0 3 -17 12 -38 9 -20 19 -47 21 -59 5 -20 2 -21 -37 -17 -25 2
-57 14 -76 29 -27 20 -47 26 -111 29 -43 2 -96 7 -118 10 l-40 6 35 -16 c19
-9 50 -29 68 -45 19 -17 47 -32 63 -36 34 -7 34 -7 12 -33 -20 -22 -43 -26
-61 -8 -9 9 -18 9 -37 0 -14 -7 -41 -12 -58 -12 -18 0 -38 -5 -44 -11 -8 -8
-24 -7 -58 7 -40 15 -52 16 -79 5 -17 -7 -46 -12 -64 -12 -21 1 -31 -2 -27 -9
3 -5 13 -10 22 -10 13 0 49 -14 110 -42 12 -6 36 -7 55 -4 76 17 117 7 82 -19
-23 -17 -15 -19 21 -5 15 6 25 7 23 3 -2 -5 -12 -26 -22 -48 -10 -22 -28 -53
-40 -70 -20 -29 -58 -105 -52 -105 2 0 30 25 62 56 45 43 65 73 85 123 21 53
32 68 55 76 16 5 35 15 41 22 7 6 30 14 52 18 22 3 42 13 45 21 4 11 15 13 43
8 42 -8 113 -48 113 -65 0 -5 9 -29 20 -51 24 -50 24 -48 5 -48 -8 0 -15 5
-15 11 0 8 -5 8 -15 -1 -10 -9 -19 -9 -27 -2 -7 6 -24 10 -38 11 -14 0 -40 3
-57 7 -18 3 -41 3 -50 -1 -10 -4 -38 -9 -63 -10 -73 -3 -77 -5 -35 -20 22 -8
54 -13 72 -10 18 3 35 0 39 -6 3 -6 12 -8 20 -5 7 3 16 1 20 -5 4 -7 10 -6 18
0 13 11 63 -7 96 -34 8 -7 30 -16 47 -20 36 -7 55 -25 27 -25 -17 0 -76 -32
-108 -59 -17 -15 -16 -16 20 -21 22 -3 56 0 77 7 20 7 41 12 45 11 12 -2 31
-32 32 -51 0 -11 8 -31 19 -45 11 -16 17 -39 15 -57 -2 -16 -4 -34 -5 -40 0
-5 2 -19 6 -30 6 -20 2 -20 -272 -17 -306 4 -325 4 -367 2 -15 -1 -35 5 -45
13 -18 16 -101 13 -134 -5 -14 -7 -23 -5 -36 6 -22 20 -58 20 -106 1 -27 -12
-40 -13 -50 -5 -11 10 -71 13 -195 10 -14 0 -53 0 -87 1 -34 0 -71 -5 -83 -11
-17 -9 -25 -8 -39 4 -22 20 -58 20 -106 1 -27 -12 -40 -13 -50 -5 -11 9 -71
12 -195 10 -14 0 -53 0 -87 1 -34 0 -71 -5 -83 -11 -17 -9 -25 -8 -39 4 -22
20 -58 20 -106 1 -27 -12 -40 -13 -50 -5 -17 14 -63 3 -74 -18 -12 -21 -12
817 0 840 6 10 5 35 -1 62 -7 31 -6 59 2 93 14 59 14 192 0 232 -8 22 -7 36 5
57 12 23 13 45 8 104 -9 88 -6 248 4 287 4 15 2 52 -5 82 -9 38 -10 69 -3 104
10 56 4 182 -11 223 -8 21 -7 32 6 52 14 21 15 38 9 101 -9 88 -7 248 4 288 4
15 2 52 -5 82 -9 38 -10 69 -3 104 10 56 4 182 -11 223 -8 20 -7 32 5 50 19
29 19 103 2 171 -9 33 -10 57 -4 68 5 9 7 36 5 61 l-3 44 135 1 c282 1 337 0
410 -5 150 -12 241 -14 275 -6 20 4 38 4 41 -1 3 -5 10 -7 15 -3 6 3 23 1 38
-6 23 -9 36 -8 66 4 20 9 42 13 49 9 6 -4 18 -9 26 -10 50 -8 332 1 349 11 5
4 12 2 16 -4 4 -6 11 -8 16 -4 6 3 23 1 38 -6 23 -9 36 -8 66 4 20 9 42 13 49
9 6 -4 18 -9 26 -10 50 -8 332 1 349 11 5 4 12 2 16 -4 4 -6 11 -8 16 -4 6 3
24 0 41 -7 19 -8 32 -9 36 -2 8 11 28 14 85 13 50 -1 59 6 45 35 -12 27 -54
35 -75 14 -7 -7 -17 -8 -25 -3 -36 23 -106 29 -126 11 -16 -14 -22 -14 -66 0
-38 13 -59 14 -102 6 -38 -7 -64 -6 -87 2 -19 6 -42 8 -53 4 -10 -4 -38 -8
-61 -8 -23 -1 -45 -6 -48 -11 -5 -8 -11 -8 -19 0 -24 19 -102 24 -125 8 -19
-13 -27 -13 -67 0 -36 12 -58 13 -100 5 -38 -7 -64 -6 -87 2 -19 6 -42 8 -53
4z m1035 -2231 c7 -34 21 -74 31 -88 23 -33 39 -258 15 -226 -8 10 -21 42 -31
72 -9 30 -22 58 -29 64 -15 12 -21 240 -7 240 4 0 14 -28 21 -62z"/>
<path d="M2241 2369 c-44 -22 -81 -45 -81 -50 0 -6 -6 -7 -12 -3 -10 5 -10 4
-2 -5 9 -10 23 -7 64 14 28 14 54 24 57 21 3 -2 -19 -17 -49 -32 -68 -35 -49
-43 23 -9 30 13 55 21 57 16 5 -15 -43 -83 -82 -118 -39 -34 -43 -45 -22 -62
11 -9 22 -7 51 9 63 36 96 64 90 78 -3 8 -2 19 2 25 5 7 10 0 15 -18 7 -28 7
-28 4 5 -2 19 3 48 11 63 8 16 12 31 9 34 -9 9 -33 -15 -46 -47 -7 -17 -16
-30 -21 -30 -5 0 4 24 20 54 30 54 32 96 6 96 -7 0 -49 -18 -94 -41z"/>
<path d="M2481 1044 c-19 -14 -46 -27 -60 -30 -14 -3 -46 -15 -71 -25 l-45
-20 55 6 c30 4 59 10 65 14 5 5 22 11 36 15 22 5 28 2 32 -16 6 -21 -33 -79
-86 -129 -49 -45 41 1 99 51 39 33 74 79 74 96 0 19 -24 18 -40 -1 -7 -9 -15
-13 -17 -11 -3 2 5 14 16 25 50 50 4 69 -58 25z"/>
</g>
</svg>
