<?xml version="1.0" encoding="UTF-8" standalone="no"?>
<svg
   xmlns:dc="http://purl.org/dc/elements/1.1/"
   xmlns:cc="http://creativecommons.org/ns#"
   xmlns:rdf="http://www.w3.org/1999/02/22-rdf-syntax-ns#"
   xmlns:svg="http://www.w3.org/2000/svg"
   xmlns="http://www.w3.org/2000/svg"
   xmlns:sodipodi="http://sodipodi.sourceforge.net/DTD/sodipodi-0.dtd"
   xmlns:inkscape="http://www.inkscape.org/namespaces/inkscape"
   viewBox="0 0 1440 320"
   version="1.1"
   id="svg4"
   sodipodi:docname="squiggle1.svg"
   inkscape:version="0.92.4 (f8dce91, 2019-08-02)">
  <metadata
     id="metadata10">
    <rdf:RDF>
      <cc:Work
         rdf:about="">
        <dc:format>image/svg+xml</dc:format>
        <dc:type
           rdf:resource="http://purl.org/dc/dcmitype/StillImage" />
        <dc:title></dc:title>
      </cc:Work>
    </rdf:RDF>
  </metadata>
  <defs
     id="defs8" />
  <sodipodi:namedview
     pagecolor="#ffffff"
     bordercolor="#666666"
     borderopacity="1"
     objecttolerance="10"
     gridtolerance="10"
     guidetolerance="10"
     inkscape:pageopacity="0"
     inkscape:pageshadow="2"
     inkscape:window-width="1920"
     inkscape:window-height="1170"
     id="namedview6"
     showgrid="false"
     inkscape:zoom="0.27291667"
     inkscape:cx="720"
     inkscape:cy="160"
     inkscape:window-x="0"
     inkscape:window-y="0"
     inkscape:window-maximized="1"
     inkscape:current-layer="svg4" />
  <path
     d="m 795.4851,836.5149 -26.7,-20 c -26.3,-20 -80.3,-60 -106.6,-100 -26.7,-40 -26.7,-80 21.3,-120 48,-40 144,-80 144,-120 0,-40 -96,-80 -144,-120 -48,-40 -48,-80 -32,-120 16,-40 48,-80 74.7,-120 26.3,-40 48.3,-80 48,-120.0000001 0.3,-39.9999999 -21.7,-79.9999999 -37.4,-119.9999999 -16.3,-40 -26.3,-80 -10.6,-120 16.3,-40 58.3,-80 85.3,-120 27,-40 37,-80 5.3,-120 -32.3,-40 -106.3,-80 -144,-100 l -37.3,-20 h -32 v 20 c 0,20 0,60 0,100 0,40 0,80 0,120 0,40 0,80 0,120 0,40 0,80 0,120 0,40 0,80 0,119.9999999 0,40.0000001 0,80.0000001 0,120.0000001 0,40 0,80 0,120 0,40 0,80 0,120 0,40 0,80 0,120 0,40 0,80 0,120 0,40 0,80 0,120 0,40 0,80 0,100 v 20 z"
     id="path2"
     inkscape:connector-curvature="0"
     style="fill:#0099ff;fill-opacity:1" />
</svg>
