<?xml-stylesheet type="text/css" href="../css/waveSVG.css"?>
<svg
version="1.1"
   id="wave-svg"
   xmlns="http://www.w3.org/2000/svg"
   xmlns:xlink="http://www.w3.org/1999/xlink"

   viewBox="0 0 233.02979 1440"
>

<g stroke="none" stroke-width="20" fill="#000" fill-rule="nonzero">

  <path
     d="m 192,1440 -26.7,-20 C 139,1400 85,1360 58.7,1320 32,1280 32,1240 80,1200 128,1160 224,1120 224,1080 224,1040 128,1000 80,960 32,920 32,880 48,840 64,800 96,760 122.7,720 149,680 171,640 170.7,600 171,560 149,520 133.3,480 117,440 107,400 122.7,360 139,320 181,280 208,240 235,200 245,160 213.3,120 181,80 107,40 69.3,20 L 32,0 H 0 v 20 c 0,20 0,60 0,100 0,40 0,80 0,120 0,40 0,80 0,120 0,40 0,80 0,120 0,40 0,80 0,120 0,40 0,80 0,120 0,40 0,80 0,120 0,40 0,80 0,120 0,40 0,80 0,120 0,40 0,80 0,120 0,40 0,80 0,120 0,40 0,80 0,100 v 20 z"
     id="path2"/>
     </g>
</svg>
