<?xml version="1.0" standalone="no"?>
<!DOCTYPE svg PUBLIC "-//W3C//DTD SVG 20010904//EN"
 "http://www.w3.org/TR/2001/REC-SVG-20010904/DTD/svg10.dtd">
<svg version="1.0" xmlns="http://www.w3.org/2000/svg"
 width="1280.000000pt" height="907.000000pt" viewBox="0 0 1280.000000 907.000000"
 preserveAspectRatio="xMidYMid meet">
<metadata>
Created by potrace 1.15, written by Peter Selinger 2001-2017
</metadata>
<g transform="translate(0.000000,907.000000) scale(0.100000,-0.100000)"
fill="#000000" stroke="none">
<path d="M5048 8853 c-32 -8 -17 -86 24 -130 21 -22 21 -23 16 -938 l-5 -916
-21 -27 c-43 -53 -46 -67 -28 -125 9 -29 25 -59 36 -67 20 -14 20 -29 20 -671
0 -360 -3 -779 -7 -929 l-6 -273 -29 -32 c-15 -18 -28 -40 -28 -48 0 -24 36
-101 54 -116 14 -12 16 -74 16 -666 0 -358 -3 -775 -7 -925 l-6 -273 -29 -32
c-15 -18 -28 -43 -28 -56 0 -41 19 -95 40 -114 20 -18 20 -32 20 -934 0 -999
4 -913 -52 -992 -33 -47 5 -89 80 -89 25 0 92 38 92 53 0 11 202 8 283 -4 40
-6 84 -17 99 -25 36 -18 92 -18 108 1 15 18 6 71 -16 96 -14 16 -17 54 -18
266 l-1 248 119 3 c66 1 126 0 134 -3 8 -3 -29 -26 -85 -54 -153 -78 -152 -72
-29 -106 58 -16 106 -33 106 -37 0 -4 -7 -8 -15 -8 -22 0 -18 -15 8 -29 12 -6
36 -20 52 -31 17 -11 36 -23 42 -26 7 -3 10 -10 7 -15 -3 -5 1 -6 9 -3 8 3 36
-8 63 -24 119 -69 225 -95 507 -123 76 -8 117 -16 117 -24 0 -6 10 -17 23 -23
12 -6 36 -20 54 -32 l32 -21 12 40 c11 36 16 41 41 41 15 0 157 -18 315 -40
157 -22 290 -39 295 -38 5 2 -37 17 -94 35 -172 52 -468 157 -468 167 0 9 134
210 168 253 14 18 35 23 127 33 150 17 160 24 33 28 -60 1 -108 5 -108 8 0 10
241 320 315 406 22 25 55 66 73 90 80 102 236 268 249 263 8 -2 11 -1 8 4 -8
13 63 91 244 269 252 248 494 465 776 696 185 152 240 201 170 150 -48 -35
-284 -218 -305 -237 -8 -7 -71 -60 -140 -117 -213 -177 -511 -442 -602 -535
-79 -81 -88 -88 -105 -75 -13 11 -15 11 -6 1 9 -11 1 -25 -42 -68 -30 -30 -59
-52 -64 -48 -7 3 -8 0 -5 -9 4 -9 -12 -33 -43 -64 -47 -47 -51 -49 -143 -66
-52 -9 -111 -21 -130 -26 -19 -5 -96 -21 -170 -35 -74 -15 -207 -41 -295 -60
-107 -22 -196 -35 -269 -37 l-108 -4 33 26 c18 14 74 61 123 105 132 118 236
202 485 390 l224 169 66 -1 66 0 -55 6 -55 6 43 29 c23 16 42 33 42 37 0 11
-120 -48 -181 -89 -24 -16 -82 -46 -129 -67 -47 -21 -197 -94 -334 -162 -136
-69 -279 -133 -317 -144 -37 -10 -127 -46 -198 -79 -72 -33 -143 -65 -158 -71
-15 -5 -66 -35 -113 -65 -104 -66 -171 -139 -285 -314 -95 -145 -108 -167
-109 -194 -1 -11 -7 -21 -13 -24 -10 -3 -13 132 -13 655 l0 658 25 23 c13 13
27 39 31 59 l7 35 26 -64 c15 -34 45 -94 66 -132 44 -80 38 -86 84 84 25 93
31 134 31 215 0 55 -5 116 -10 135 -6 19 -17 80 -25 135 -9 55 -18 107 -20
116 -6 17 60 51 164 83 30 10 76 28 102 41 27 13 49 19 49 14 0 -22 -169 -507
-188 -539 -11 -19 -42 -91 -68 -160 -46 -121 -48 -129 -48 -235 -1 -83 5 -135
23 -212 13 -57 27 -103 30 -103 10 1 127 213 149 270 31 83 41 152 62 460 5
73 21 224 36 335 22 166 30 205 49 230 22 30 69 117 85 160 8 22 7 23 -33 18
-23 -2 -72 -13 -108 -25 -69 -20 -141 -76 -262 -200 -44 -46 -67 -59 -67 -39
0 5 -4 43 -10 83 -5 40 -12 98 -15 128 -3 30 -13 109 -23 175 l-19 120 -5 -85
c-3 -47 -11 -177 -17 -290 -7 -113 -14 -214 -16 -225 -3 -11 -20 -33 -40 -48
l-35 -28 0 160 c0 144 2 160 18 164 16 4 16 5 0 6 -17 1 -18 20 -18 247 l0
246 48 -39 c26 -22 74 -59 107 -83 33 -24 64 -51 69 -59 5 -9 38 -43 72 -77
35 -34 62 -63 59 -65 -2 -2 6 -5 18 -6 12 -1 36 -5 53 -8 32 -7 187 26 231 49
l23 12 -25 36 c-14 20 -25 43 -25 51 0 24 -92 102 -135 115 -22 6 -96 21 -165
32 -69 11 -171 32 -227 47 l-103 28 0 342 0 342 25 27 c38 41 38 103 0 177
l-25 49 0 429 0 428 113 100 c62 55 178 152 259 216 162 127 178 134 311 129
38 -2 80 2 94 9 21 9 112 143 102 151 -2 1 -23 8 -47 15 l-43 12 43 32 c355
257 1086 659 1651 907 53 24 96 45 93 47 -2 2 -57 -19 -122 -47 -66 -28 -126
-54 -134 -57 -8 -4 5 16 30 44 74 83 139 160 204 243 35 43 134 157 222 252
87 95 149 166 137 158 -12 -8 -46 -33 -75 -56 -160 -123 -372 -276 -410 -295
-57 -29 -224 -144 -266 -183 -42 -39 -84 -112 -127 -219 -31 -77 -35 -84 -84
-110 -29 -16 -55 -27 -58 -24 -2 3 23 43 56 88 97 130 118 184 165 434 8 44
18 107 21 140 8 72 83 420 112 520 12 43 -12 0 -48 -83 -113 -265 -183 -420
-203 -447 -33 -43 -123 -236 -142 -306 -9 -32 -17 -59 -18 -59 -11 0 -294 124
-406 178 -174 83 -277 112 -405 112 -51 0 -94 -3 -98 -6 -8 -8 83 -93 149
-139 57 -40 193 -81 304 -90 36 -3 153 -22 261 -43 l197 -36 12 -103 c6 -56
15 -118 20 -138 l8 -35 -199 -100 c-203 -102 -372 -193 -399 -214 -8 -7 -28
-18 -44 -25 -145 -61 -786 -486 -1156 -766 l-75 -56 -3 400 -2 400 24 26 c13
14 26 40 28 57 7 42 -11 118 -33 147 -18 23 -19 60 -19 937 l0 913 24 26 c31
34 41 82 21 111 -23 35 -57 39 -108 15 -39 -19 -61 -21 -228 -21 -165 0 -189
2 -224 20 -38 19 -61 23 -97 13z m477 -2098 c36 -12 22 -13 -149 -14 -166 -1
-187 1 -176 14 16 20 265 20 325 0z m-87 -2072 c-43 -2 -113 -2 -155 0 -43 1
-8 3 77 3 85 0 120 -2 78 -3z m263 -1821 c-13 -131 -18 -161 -28 -151 -9 9
-13 54 -13 149 l0 135 27 17 c15 9 28 16 29 15 0 -1 -6 -75 -15 -165z m-182
-238 c61 -13 29 -24 -67 -24 -130 0 -253 11 -246 21 6 10 266 12 313 3z m1979
-941 c-37 -38 -77 -82 -90 -100 -29 -40 -385 -460 -396 -466 -15 -9 -419 22
-487 37 -38 8 -109 18 -158 21 -86 7 -103 17 -50 29 31 8 166 70 483 222 198
95 575 254 603 254 7 0 44 16 82 35 39 19 72 35 75 35 2 0 -26 -30 -62 -67z
m-559 -662 c-8 -10 -47 -62 -87 -115 l-73 -95 -47 28 c-26 15 -101 47 -166 71
l-119 43 89 19 c162 34 198 40 289 53 132 19 130 19 114 -4z"/>
<path d="M6628 8414 c-4 -6 -14 -56 -23 -110 -18 -124 -26 -164 -60 -294 -36
-138 -36 -194 -1 -300 l29 -84 32 37 c17 20 47 66 65 102 32 63 33 67 26 149
-4 46 -12 99 -18 118 -6 18 -18 114 -27 213 -9 99 -19 175 -23 169z"/>
<path d="M7360 8134 c-85 -46 -209 -106 -275 -134 -226 -97 -296 -144 -396
-267 -32 -40 -59 -74 -59 -75 0 -7 82 2 155 16 128 25 200 70 340 211 27 27
130 114 228 193 98 78 175 141 170 141 -4 -1 -78 -39 -163 -85z"/>
<path d="M6191 7881 c46 -49 111 -119 144 -156 l60 -67 67 -4 c37 -2 69 0 72
5 10 15 -31 141 -53 165 -19 20 -114 55 -133 49 -4 -2 -59 20 -124 47 l-117
50 84 -89z"/>
<path d="M6659 7623 c-8 -10 -21 -27 -29 -38 -15 -20 -15 -20 9 0 21 18 47 55
38 55 -2 0 -10 -8 -18 -17z"/>
<path d="M6430 7385 c-80 -80 -140 -145 -135 -145 5 0 -11 -21 -35 -47 -25
-27 -12 -17 27 21 40 39 71 72 69 73 -2 2 21 27 51 56 54 51 179 187 171 187
-2 0 -68 -65 -148 -145z m-80 -98 c0 -2 -12 -14 -27 -28 l-28 -24 24 28 c23
25 31 32 31 24z"/>
<path d="M6070 7013 c-74 -76 -106 -110 -69 -75 36 34 67 60 70 58 8 -8 132
121 135 139 1 8 1 15 0 15 0 0 -62 -62 -136 -137z m130 114 c0 -1 -30 -32 -67
-67 l-68 -65 65 68 c60 62 70 72 70 64z"/>
<path d="M7775 7016 c-27 -8 -77 -24 -110 -37 -52 -19 -57 -24 -41 -33 10 -6
39 -26 64 -45 94 -70 140 -83 322 -93 206 -10 461 -27 520 -34 47 -5 11 10
-249 100 -57 19 -120 45 -140 57 -135 80 -271 112 -366 85z"/>
<path d="M5990 6905 c-29 -30 -56 -52 -60 -50 -4 2 -27 -17 -51 -43 l-44 -47
43 40 c52 48 56 35 5 -17 -20 -21 -35 -38 -32 -38 3 0 49 47 103 105 105 113
124 139 36 50z"/>
<path d="M5770 6713 l-55 -58 58 55 c31 30 57 56 57 57 0 8 -10 -1 -60 -54z"/>
<path d="M5780 6675 c-36 -36 -70 -63 -77 -61 -7 3 -17 -4 -23 -14 -7 -14 -7
-20 0 -20 5 0 10 7 10 15 0 8 6 12 13 10 7 -3 44 26 82 65 38 38 67 70 64 70
-2 0 -34 -29 -69 -65z"/>
<path d="M6794 6447 c-68 -26 -175 -84 -186 -100 -7 -12 98 -89 185 -135 62
-33 137 -53 297 -78 143 -22 336 -60 433 -85 43 -11 81 -18 84 -16 2 3 -24 16
-59 30 -146 60 -361 158 -387 176 -16 12 -51 31 -77 42 l-49 22 50 9 c28 5 78
15 112 23 33 8 150 26 260 40 109 14 202 27 208 29 5 1 -85 8 -200 15 -116 6
-244 18 -286 26 -41 9 -131 18 -200 20 -113 5 -129 3 -185 -18z"/>
<path d="M8285 6062 c-88 -135 -181 -269 -206 -296 -58 -65 -162 -212 -193
-274 -32 -64 -44 -129 -52 -279 l-7 -128 85 85 c137 136 184 208 239 365 132
377 148 419 258 674 22 52 39 96 38 97 -1 0 -74 -109 -162 -244z"/>
<path d="M6536 6210 c-71 -106 -74 -115 -81 -320 -3 -102 -10 -221 -15 -265
-17 -141 -12 -149 26 -45 20 52 46 126 58 163 13 37 32 80 42 95 11 15 28 50
38 77 11 28 23 56 29 63 5 7 10 43 11 80 0 51 -6 85 -28 145 -16 42 -30 77
-31 77 -1 0 -23 -31 -49 -70z"/>
<path d="M6681 6121 c70 -137 100 -170 314 -343 66 -53 173 -146 238 -208 64
-61 117 -109 117 -106 0 2 -26 40 -58 83 -171 229 -216 293 -243 343 -51 96
-142 212 -191 246 -26 17 -80 45 -120 62 -130 53 -126 59 -57 -77z"/>
<path d="M7631 5712 c-37 -175 -75 -321 -143 -547 -28 -97 -35 -276 -14 -368
9 -38 16 -81 16 -98 0 -16 5 -29 10 -29 14 0 96 130 138 219 35 73 36 76 40
230 2 86 0 174 -5 196 -5 22 -6 160 -3 315 4 151 6 276 5 277 -1 2 -20 -86
-44 -195z"/>
<path d="M8604 5729 c-16 -17 -67 -63 -114 -102 -47 -40 -130 -112 -185 -162
-55 -50 -128 -110 -163 -133 -71 -47 -212 -164 -258 -213 -46 -50 -79 -118
-119 -240 -46 -143 -46 -145 13 -110 26 16 80 47 120 71 124 73 193 153 412
480 24 36 104 144 179 239 136 174 155 201 148 201 -2 0 -16 -14 -33 -31z"/>
<path d="M9228 5255 c-10 -10 -518 -108 -603 -115 -131 -12 -273 -36 -330 -56
-69 -24 -156 -84 -245 -171 l-75 -74 180 4 c211 5 199 2 580 187 66 33 149 70
185 84 174 67 353 145 334 146 -11 0 -23 -2 -26 -5z"/>
<path d="M7880 4780 c-77 -32 -220 -110 -220 -119 0 -11 235 -70 300 -76 89
-9 244 13 505 69 39 8 175 28 303 45 129 16 236 31 238 34 2 2 -60 7 -138 11
-256 12 -502 33 -533 45 -17 7 -105 14 -205 17 l-175 5 -75 -31z"/>
<path d="M7095 4569 c-99 -32 -406 -186 -413 -206 -2 -8 5 -13 17 -13 28 0 26
-10 -10 -56 -49 -62 -97 -172 -104 -239 -3 -33 -7 -116 -9 -185 l-4 -125 -39
-2 c-150 -10 -194 -22 -145 -40 13 -6 165 -105 181 -119 1 -1 0 -7 -3 -12 -4
-6 -30 1 -64 17 -66 33 -102 45 -102 36 0 -12 91 -189 105 -205 31 -34 13 -29
-38 10 -51 38 -74 50 -63 32 3 -5 12 -53 21 -107 19 -119 44 -171 155 -325 45
-62 84 -118 86 -125 6 -15 -102 -117 -151 -143 -22 -11 -69 -45 -105 -76 -35
-30 -66 -54 -67 -53 -5 6 26 194 35 217 18 41 42 180 43 250 2 68 -16 135 -67
247 l-26 58 -34 -95 c-57 -157 -60 -194 -35 -435 28 -276 28 -295 -5 -326 -35
-32 -80 -123 -120 -243 -46 -137 -46 -142 14 -107 26 16 80 47 120 70 90 52
171 131 243 235 30 44 88 129 129 189 42 61 80 112 85 113 6 2 39 -44 74 -102
66 -108 99 -148 62 -75 -12 23 -37 86 -57 142 l-36 100 59 76 c32 42 63 83 69
92 10 13 25 3 100 -64 98 -88 97 -86 -29 78 l-29 38 31 39 c41 52 39 62 -4 20
-28 -27 -37 -31 -49 -21 -15 13 -63 83 -157 231 -30 47 -69 102 -87 122 -41
45 -38 80 6 73 39 -7 242 -43 347 -61 50 -9 135 -27 189 -40 55 -13 102 -22
104 -19 3 2 -4 8 -14 11 -10 4 -75 31 -144 61 -125 55 -191 86 -350 168 -47
24 -89 45 -95 47 -5 3 5 24 23 48 18 24 32 51 32 59 0 9 8 30 18 46 61 99 71
237 28 370 -14 43 -24 80 -22 82 1 2 43 -10 92 -26 84 -27 87 -29 57 -36 -18
-4 -33 -11 -33 -15 0 -4 28 -22 63 -40 79 -41 177 -103 177 -112 0 -5 -7 -8
-16 -8 -8 0 -13 -4 -9 -10 4 -6 15 -5 30 2 19 9 30 7 58 -11 19 -12 52 -28 73
-36 36 -13 28 -14 -111 -9 l-150 6 46 -40 c25 -22 63 -62 84 -88 34 -41 36
-47 17 -42 -12 4 -22 5 -22 3 0 -2 15 -30 34 -62 18 -32 55 -96 81 -142 57
-98 169 -218 265 -281 36 -23 92 -63 125 -87 33 -24 110 -76 170 -116 61 -40
202 -144 315 -231 113 -87 212 -164 220 -170 8 -6 -14 22 -50 63 -36 41 -96
111 -135 156 -38 45 -119 136 -180 204 -60 67 -122 145 -137 174 -16 29 -44
68 -62 87 -45 48 -110 130 -102 130 28 0 321 -109 535 -199 145 -61 266 -110
268 -108 1 2 -33 26 -77 53 -173 107 -527 349 -570 389 -49 47 -246 191 -307
225 -28 15 -31 20 -13 15 14 -3 87 -10 163 -15 76 -5 142 -12 147 -15 5 -3 95
-10 202 -15 119 -6 324 -27 533 -55 359 -48 425 -59 438 -78 5 -8 7 -5 5 7 -2
14 -29 26 -118 52 -63 18 -190 60 -281 93 -91 33 -244 85 -340 115 -104 34
-201 72 -241 95 -36 22 -77 42 -90 46 -12 4 -79 28 -148 53 -141 53 -146 43
50 86 161 35 191 40 594 91 198 25 362 48 365 50 2 3 -40 5 -95 5 -54 0 -169
7 -254 15 -85 7 -249 19 -365 25 -135 7 -242 18 -300 31 -115 25 -259 39 -455
44 -150 4 -158 3 -245 -26z m-354 -1369 c163 -133 153 -114 94 -166 -27 -25
-62 -54 -77 -65 l-27 -20 -16 58 c-34 122 -68 220 -91 262 -28 51 -33 54 117
-69z"/>
<path d="M6256 4243 c-43 -23 -157 -102 -186 -128 -26 -24 -165 -107 -251
-151 -28 -14 -49 -27 -47 -30 5 -4 99 7 262 31 49 7 101 9 116 5 33 -10 178 3
207 18 52 28 180 228 151 236 -147 40 -206 44 -252 19z"/>
<path d="M7060 4055 c-25 -14 -25 -14 -2 -15 12 0 22 5 22 11 0 5 5 7 12 3 7
-4 8 -3 4 4 -9 14 -5 15 -36 -3z"/>
<path d="M8991 3885 c0 -35 2 -37 11 -19 7 15 7 28 -1 40 -9 16 -10 12 -10
-21z"/>
<path d="M6530 3775 c-14 -8 -20 -14 -14 -15 5 0 19 7 30 15 24 18 16 19 -16
0z"/>
<path d="M6434 3754 c-18 -14 -18 -14 6 -3 31 14 36 19 24 19 -6 0 -19 -7 -30
-16z"/>
<path d="M8972 3715 c0 -16 2 -22 5 -12 2 9 2 23 0 30 -3 6 -5 -1 -5 -18z"/>
<path d="M9012 3720 c0 -14 2 -19 5 -12 2 6 2 18 0 25 -3 6 -5 1 -5 -13z"/>
<path d="M6314 3664 c-18 -14 -18 -14 6 -3 31 14 36 19 24 19 -6 0 -19 -7 -30
-16z"/>
<path d="M8951 3604 c0 -11 3 -14 6 -6 3 7 2 16 -1 19 -3 4 -6 -2 -5 -13z"/>
<path d="M5940 3515 c-14 -8 -20 -14 -14 -15 5 0 19 7 30 15 24 18 16 19 -16
0z"/>
<path d="M8931 3494 c0 -11 3 -14 6 -6 3 7 2 16 -1 19 -3 4 -6 -2 -5 -13z"/>
<path d="M9042 3460 c0 -14 2 -19 5 -12 2 6 2 18 0 25 -3 6 -5 1 -5 -13z"/>
<path d="M5914 3454 c-18 -14 -18 -15 4 -4 12 6 22 13 22 15 0 8 -5 6 -26 -11z"/>
<path d="M10358 3253 c7 -3 16 -2 19 1 4 3 -2 6 -13 5 -11 0 -14 -3 -6 -6z"/>
<path d="M10290 3240 c-11 -8 -7 -9 15 -4 37 8 45 14 19 14 -10 0 -26 -5 -34
-10z"/>
<path d="M10173 3233 c9 -2 23 -2 30 0 6 3 -1 5 -18 5 -16 0 -22 -2 -12 -5z"/>
<path d="M8911 3214 c0 -11 3 -14 6 -6 3 7 2 16 -1 19 -3 4 -6 -2 -5 -13z"/>
<path d="M10098 3223 c6 -2 18 -2 25 0 6 3 1 5 -13 5 -14 0 -19 -2 -12 -5z"/>
<path d="M10023 3213 c9 -2 23 -2 30 0 6 3 -1 5 -18 5 -16 0 -22 -2 -12 -5z"/>
<path d="M9953 3203 c9 -2 23 -2 30 0 6 3 -1 5 -18 5 -16 0 -22 -2 -12 -5z"/>
<path d="M9898 3193 c6 -2 18 -2 25 0 6 3 1 5 -13 5 -14 0 -19 -2 -12 -5z"/>
<path d="M9828 3183 c6 -2 18 -2 25 0 6 3 1 5 -13 5 -14 0 -19 -2 -12 -5z"/>
<path d="M9513 3163 c9 -2 25 -2 35 0 9 3 1 5 -18 5 -19 0 -27 -2 -17 -5z"/>
<path d="M10028 3163 c7 -3 16 -2 19 1 4 3 -2 6 -13 5 -11 0 -14 -3 -6 -6z"/>
<path d="M9423 3153 c9 -2 25 -2 35 0 9 3 1 5 -18 5 -19 0 -27 -2 -17 -5z"/>
<path d="M9988 3153 c7 -3 16 -2 19 1 4 3 -2 6 -13 5 -11 0 -14 -3 -6 -6z"/>
<path d="M9288 3123 c7 -3 16 -2 19 1 4 3 -2 6 -13 5 -11 0 -14 -3 -6 -6z"/>
<path d="M9178 3084 c-39 -21 -35 -28 5 -8 37 19 44 24 31 24 -5 -1 -21 -8
-36 -16z"/>
<path d="M9275 3070 c3 -5 10 -10 16 -10 5 0 9 5 9 10 0 6 -7 10 -16 10 -8 0
-12 -4 -9 -10z"/>
<path d="M9054 3014 c-18 -14 -18 -15 4 -4 12 6 22 13 22 15 0 8 -5 6 -26 -11z"/>
<path d="M9428 2983 c7 -3 16 -2 19 1 4 3 -2 6 -13 5 -11 0 -14 -3 -6 -6z"/>
<path d="M8957 2958 c-6 -4 17 -7 53 -7 66 1 65 5 -3 11 -20 2 -43 0 -50 -4z"/>
<path d="M9338 2963 c6 -2 18 -2 25 0 6 3 1 5 -13 5 -14 0 -19 -2 -12 -5z"/>
<path d="M9258 2953 c12 -2 30 -2 40 0 9 3 -1 5 -23 4 -22 0 -30 -2 -17 -4z"/>
<path d="M8950 2820 c8 -5 20 -10 25 -10 6 0 3 5 -5 10 -8 5 -19 10 -25 10 -5
0 -3 -5 5 -10z"/>
<path d="M9748 2823 c6 -2 18 -2 25 0 6 3 1 5 -13 5 -14 0 -19 -2 -12 -5z"/>
<path d="M9818 2813 c6 -2 18 -2 25 0 6 3 1 5 -13 5 -14 0 -19 -2 -12 -5z"/>
<path d="M9878 2803 c6 -2 18 -2 25 0 6 3 1 5 -13 5 -14 0 -19 -2 -12 -5z"/>
<path d="M9920 2789 c-16 -4 1 -7 49 -8 41 -1 72 1 70 3 -9 8 -96 12 -119 5z"/>
<path d="M9693 2773 c15 -2 39 -2 55 0 15 2 2 4 -28 4 -30 0 -43 -2 -27 -4z"/>
<path d="M9598 2763 c6 -2 18 -2 25 0 6 3 1 5 -13 5 -14 0 -19 -2 -12 -5z"/>
<path d="M9148 2753 c7 -3 16 -2 19 1 4 3 -2 6 -13 5 -11 0 -14 -3 -6 -6z"/>
<path d="M9498 2753 c12 -2 32 -2 45 0 12 2 2 4 -23 4 -25 0 -35 -2 -22 -4z"/>
<path d="M9198 2743 c7 -3 16 -2 19 1 4 3 -2 6 -13 5 -11 0 -14 -3 -6 -6z"/>
<path d="M9373 2743 c9 -2 25 -2 35 0 9 3 1 5 -18 5 -19 0 -27 -2 -17 -5z"/>
<path d="M6770 2469 c-140 -70 -273 -133 -295 -139 -55 -16 -261 -107 -310
-138 -58 -35 -91 -68 -149 -147 -49 -66 -116 -170 -116 -180 0 -2 11 0 25 5
13 5 65 19 116 31 99 23 203 66 258 107 49 37 190 153 282 233 42 37 159 129
260 204 200 150 208 156 194 153 -6 -1 -125 -59 -265 -129z"/>
<path d="M8648 2543 c7 -3 16 -2 19 1 4 3 -2 6 -13 5 -11 0 -14 -3 -6 -6z"/>
<path d="M8608 2533 c7 -3 16 -2 19 1 4 3 -2 6 -13 5 -11 0 -14 -3 -6 -6z"/>
<path d="M8808 2533 c6 -2 18 -2 25 0 6 3 1 5 -13 5 -14 0 -19 -2 -12 -5z"/>
<path d="M8858 2523 c6 -2 18 -2 25 0 6 3 1 5 -13 5 -14 0 -19 -2 -12 -5z"/>
<path d="M8908 2513 c6 -2 18 -2 25 0 6 3 1 5 -13 5 -14 0 -19 -2 -12 -5z"/>
<path d="M8115 2495 c-39 -18 -31 -18 25 -1 25 8 36 15 25 15 -11 0 -33 -6
-50 -14z"/>
<path d="M7943 2483 c9 -2 23 -2 30 0 6 3 -1 5 -18 5 -16 0 -22 -2 -12 -5z"/>
<path d="M8450 2480 c-12 -8 -12 -10 3 -16 10 -3 21 -4 24 0 4 3 1 6 -6 6 -7
0 -9 5 -6 10 8 12 4 12 -15 0z"/>
<path d="M9043 2483 c9 -2 23 -2 30 0 6 3 -1 5 -18 5 -16 0 -22 -2 -12 -5z"/>
<path d="M7738 2473 c12 -2 32 -2 45 0 12 2 2 4 -23 4 -25 0 -35 -2 -22 -4z"/>
<path d="M7853 2473 c9 -2 25 -2 35 0 9 3 1 5 -18 5 -19 0 -27 -2 -17 -5z"/>
<path d="M9113 2473 c9 -2 23 -2 30 0 6 3 -1 5 -18 5 -16 0 -22 -2 -12 -5z"/>
<path d="M7603 2463 c15 -2 39 -2 55 0 15 2 2 4 -28 4 -30 0 -43 -2 -27 -4z"/>
<path d="M9173 2463 c9 -2 23 -2 30 0 6 3 -1 5 -18 5 -16 0 -22 -2 -12 -5z"/>
<path d="M9228 2453 c6 -2 18 -2 25 0 6 3 1 5 -13 5 -14 0 -19 -2 -12 -5z"/>
<path d="M9283 2443 c9 -2 23 -2 30 0 6 3 -1 5 -18 5 -16 0 -22 -2 -12 -5z"/>
<path d="M7910 2430 c-8 -5 -10 -10 -5 -10 6 0 17 5 25 10 8 5 11 10 5 10 -5
0 -17 -5 -25 -10z"/>
<path d="M9097 2433 c18 -2 50 -2 70 0 21 2 7 4 -32 4 -38 0 -55 -2 -38 -4z"/>
<path d="M8993 2423 c9 -2 25 -2 35 0 9 3 1 5 -18 5 -19 0 -27 -2 -17 -5z"/>
<path d="M7850 2405 c-14 -8 -20 -14 -15 -14 6 0 21 6 35 14 14 8 21 14 15 14
-5 0 -21 -6 -35 -14z"/>
<path d="M8608 2413 c7 -3 16 -2 19 1 4 3 -2 6 -13 5 -11 0 -14 -3 -6 -6z"/>
<path d="M8893 2413 c15 -2 39 -2 55 0 15 2 2 4 -28 4 -30 0 -43 -2 -27 -4z"/>
<path d="M8648 2403 c6 -2 18 -2 25 0 6 3 1 5 -13 5 -14 0 -19 -2 -12 -5z"/>
<path d="M8803 2403 c9 -2 23 -2 30 0 6 3 -1 5 -18 5 -16 0 -22 -2 -12 -5z"/>
<path d="M7369 2363 c-13 -16 -12 -17 4 -4 16 13 21 21 13 21 -2 0 -10 -8 -17
-17z"/>
<path d="M7700 2350 c-8 -5 -10 -10 -5 -10 6 0 17 5 25 10 8 5 11 10 5 10 -5
0 -17 -5 -25 -10z"/>
<path d="M8473 2353 c9 -2 23 -2 30 0 6 3 -1 5 -18 5 -16 0 -22 -2 -12 -5z"/>
<path d="M7324 2328 l-19 -23 23 19 c12 11 22 21 22 23 0 8 -8 2 -26 -19z"/>
<path d="M8548 2343 c6 -2 18 -2 25 0 6 3 1 5 -13 5 -14 0 -19 -2 -12 -5z"/>
<path d="M8495 2310 c10 -11 20 -20 23 -20 3 0 -3 9 -13 20 -10 11 -20 20 -23
20 -3 0 3 -9 13 -20z"/>
<path d="M8691 2316 c2 -2 15 -9 29 -15 24 -11 24 -11 6 3 -16 13 -49 24 -35
12z"/>
<path d="M7818 2293 c6 -2 18 -2 25 0 6 3 1 5 -13 5 -14 0 -19 -2 -12 -5z"/>
<path d="M7868 2283 c6 -2 18 -2 25 0 6 3 1 5 -13 5 -14 0 -19 -2 -12 -5z"/>
<path d="M7918 2273 c6 -2 18 -2 25 0 6 3 1 5 -13 5 -14 0 -19 -2 -12 -5z"/>
<path d="M8520 2276 c0 -2 8 -10 18 -17 15 -13 16 -12 3 4 -13 16 -21 21 -21
13z"/>
<path d="M8800 2245 c13 -14 26 -25 28 -25 3 0 -5 11 -18 25 -13 14 -26 25
-28 25 -3 0 5 -11 18 -25z"/>
<path d="M8018 2243 c7 -3 16 -2 19 1 4 3 -2 6 -13 5 -11 0 -14 -3 -6 -6z"/>
<path d="M7460 2230 c0 -5 5 -10 11 -10 5 0 7 5 4 10 -3 6 -8 10 -11 10 -2 0
-4 -4 -4 -10z"/>
<path d="M8138 2233 c7 -3 16 -2 19 1 4 3 -2 6 -13 5 -11 0 -14 -3 -6 -6z"/>
<path d="M8183 2223 c9 -2 23 -2 30 0 6 3 -1 5 -18 5 -16 0 -22 -2 -12 -5z"/>
<path d="M8238 2213 c6 -2 18 -2 25 0 6 3 1 5 -13 5 -14 0 -19 -2 -12 -5z"/>
<path d="M8282 2205 c2 -15 16 -18 91 -20 92 -3 118 9 42 19 -25 3 -66 9 -91
12 -40 6 -46 4 -42 -11z"/>
<path d="M8860 2195 c13 -14 26 -25 28 -25 3 0 -5 11 -18 25 -13 14 -26 25
-28 25 -3 0 5 -11 18 -25z"/>
<path d="M8610 2185 c13 -14 26 -25 28 -25 3 0 -5 11 -18 25 -13 14 -26 25
-28 25 -3 0 5 -11 18 -25z"/>
<path d="M8238 2193 c7 -3 16 -2 19 1 4 3 -2 6 -13 5 -11 0 -14 -3 -6 -6z"/>
<path d="M7618 2173 c7 -3 16 -2 19 1 4 3 -2 6 -13 5 -11 0 -14 -3 -6 -6z"/>
<path d="M7923 2173 c9 -2 25 -2 35 0 9 3 1 5 -18 5 -19 0 -27 -2 -17 -5z"/>
<path d="M7658 2163 c7 -3 16 -2 19 1 4 3 -2 6 -13 5 -11 0 -14 -3 -6 -6z"/>
<path d="M7823 2163 c9 -2 25 -2 35 0 9 3 1 5 -18 5 -19 0 -27 -2 -17 -5z"/>
<path d="M8915 2150 c10 -11 20 -20 23 -20 3 0 -3 9 -13 20 -10 11 -20 20 -23
20 -3 0 3 -9 13 -20z"/>
<path d="M8462 2140 c0 -14 2 -19 5 -12 2 6 2 18 0 25 -3 6 -5 1 -5 -13z"/>
<path d="M7400 2133 c0 -6 8 -17 18 -24 16 -13 16 -13 2 6 -8 11 -16 22 -17
24 -2 2 -3 0 -3 -6z"/>
<path d="M7478 2113 c6 -2 18 -2 25 0 6 3 1 5 -13 5 -14 0 -19 -2 -12 -5z"/>
<path d="M8955 2100 c10 -11 20 -20 23 -20 3 0 -3 9 -13 20 -10 11 -20 20 -23
20 -3 0 3 -9 13 -20z"/>
<path d="M7553 2103 c9 -2 23 -2 30 0 6 3 -1 5 -18 5 -16 0 -22 -2 -12 -5z"/>
<path d="M7618 2093 c7 -3 16 -2 19 1 4 3 -2 6 -13 5 -11 0 -14 -3 -6 -6z"/>
<path d="M8641 2074 c0 -11 3 -14 6 -6 3 7 2 16 -1 19 -3 4 -6 -2 -5 -13z"/>
<path d="M8800 2086 c0 -3 9 -10 20 -16 11 -6 20 -8 20 -6 0 3 -9 10 -20 16
-11 6 -20 8 -20 6z"/>
<path d="M7500 2076 c0 -2 8 -10 18 -17 15 -13 16 -12 3 4 -13 16 -21 21 -21
13z"/>
<path d="M7720 2066 c0 -2 7 -7 16 -10 8 -3 12 -2 9 4 -6 10 -25 14 -25 6z"/>
<path d="M9000 2067 c0 -3 17 -17 37 -33 20 -15 33 -23 29 -16 -8 13 -66 56
-66 49z"/>
<path d="M7550 2015 c13 -14 26 -25 28 -25 3 0 -5 11 -18 25 -13 14 -26 25
-28 25 -3 0 5 -11 18 -25z"/>
<path d="M9080 2006 c0 -2 8 -10 18 -17 15 -13 16 -12 3 4 -13 16 -21 21 -21
13z"/>
<path d="M7352 1970 c0 -19 2 -27 5 -17 2 9 2 25 0 35 -3 9 -5 1 -5 -18z"/>
<path d="M9140 1955 c13 -14 26 -25 28 -25 3 0 -5 11 -18 25 -13 14 -26 25
-28 25 -3 0 5 -11 18 -25z"/>
<path d="M7620 1945 c13 -14 26 -25 28 -25 3 0 -5 11 -18 25 -13 14 -26 25
-28 25 -3 0 5 -11 18 -25z"/>
<path d="M7875 1950 c10 -11 20 -20 23 -20 3 0 -3 9 -13 20 -10 11 -20 20 -23
20 -3 0 3 -9 13 -20z"/>
<path d="M8593 1875 c0 -38 2 -53 4 -32 2 20 2 52 0 70 -2 17 -4 1 -4 -38z"/>
<path d="M9117 1929 c7 -7 15 -10 18 -7 3 3 -2 9 -12 12 -14 6 -15 5 -6 -5z"/>
<path d="M7925 1910 c10 -11 20 -20 23 -20 3 0 -3 9 -13 20 -10 11 -20 20 -23
20 -3 0 3 -9 13 -20z"/>
<path d="M9188 1919 c7 -9 8 -20 4 -24 -4 -5 -1 -5 6 -1 6 4 12 3 12 -3 0 -6
15 -18 33 -26 26 -13 29 -13 12 -1 -11 8 -33 28 -49 43 -16 15 -24 21 -18 12z"/>
<path d="M7352 1880 c0 -19 2 -27 5 -17 2 9 2 25 0 35 -3 9 -5 1 -5 -18z"/>
<path d="M7512 1890 c0 -14 2 -19 5 -12 2 6 2 18 0 25 -3 6 -5 1 -5 -13z"/>
<path d="M8753 1850 c0 -36 2 -50 4 -32 2 17 2 47 0 65 -2 17 -4 3 -4 -33z"/>
<path d="M7960 1866 c0 -2 8 -10 18 -17 15 -13 16 -12 3 4 -13 16 -21 21 -21
13z"/>
<path d="M7502 1820 c0 -14 2 -19 5 -12 2 6 2 18 0 25 -3 6 -5 1 -5 -13z"/>
<path d="M8000 1836 c0 -2 8 -10 18 -17 15 -13 16 -12 3 4 -13 16 -21 21 -21
13z"/>
<path d="M7840 1826 c0 -2 7 -7 16 -10 8 -3 12 -2 9 4 -6 10 -25 14 -25 6z"/>
<path d="M8481 1814 c0 -11 3 -14 6 -6 3 7 2 16 -1 19 -3 4 -6 -2 -5 -13z"/>
<path d="M7371 1794 c0 -11 3 -14 6 -6 3 7 2 16 -1 19 -3 4 -6 -2 -5 -13z"/>
<path d="M8055 1790 c10 -11 20 -20 23 -20 3 0 -3 9 -13 20 -10 11 -20 20 -23
20 -3 0 3 -9 13 -20z"/>
<path d="M8090 1766 c0 -2 8 -10 18 -17 15 -13 16 -12 3 4 -13 16 -21 21 -21
13z"/>
<path d="M8174 1698 c44 -41 43 -47 -4 -23 -17 9 -30 13 -30 11 0 -9 62 -38
67 -32 4 3 11 0 17 -8 6 -7 29 -23 51 -35 24 -13 30 -15 15 -4 -14 10 -45 36
-70 58 -63 55 -95 78 -46 33z"/>
<path d="M8622 1700 c0 -14 2 -19 5 -12 2 6 2 18 0 25 -3 6 -5 1 -5 -13z"/>
<path d="M8491 1664 c0 -11 3 -14 6 -6 3 7 2 16 -1 19 -3 4 -6 -2 -5 -13z"/>
<path d="M8713 1545 c0 -27 2 -38 4 -22 2 15 2 37 0 50 -2 12 -4 0 -4 -28z"/>
<path d="M7461 1494 c0 -11 3 -14 6 -6 3 7 2 16 -1 19 -3 4 -6 -2 -5 -13z"/>
<path d="M7447 1430 c3 -25 7 -47 9 -49 8 -9 2 55 -6 74 -6 13 -7 5 -3 -25z"/>
<path d="M8702 1440 c0 -19 2 -27 5 -17 2 9 2 25 0 35 -3 9 -5 1 -5 -18z"/>
<path d="M8692 1365 c0 -16 2 -22 5 -12 2 9 2 23 0 30 -3 6 -5 -1 -5 -18z"/>
<path d="M5849 793 c-13 -16 -12 -17 4 -4 16 13 21 21 13 21 -2 0 -10 -8 -17
-17z"/>
<path d="M5950 760 c-6 -11 -8 -20 -6 -20 3 0 10 9 16 20 6 11 8 20 6 20 -3 0
-10 -9 -16 -20z"/>
<path d="M5819 753 c-13 -16 -12 -17 4 -4 16 13 21 21 13 21 -2 0 -10 -8 -17
-17z"/>
<path d="M5900 670 c-12 -16 -19 -30 -16 -30 2 0 14 14 26 30 12 17 19 30 16
30 -2 0 -14 -13 -26 -30z"/>
<path d="M5844 598 l-29 -33 33 29 c17 17 32 31 32 33 0 8 -8 1 -36 -29z"/>
<path d="M5751 604 c0 -11 3 -14 6 -6 3 7 2 16 -1 19 -3 4 -6 -2 -5 -13z"/>
<path d="M5767 535 c-37 -33 -24 -32 15 0 16 14 26 25 21 25 -4 0 -21 -12 -36
-25z"/>
</g>
</svg>
