<?xml version="1.0" encoding="utf-8"?>
<!-- Generator: Adobe Illustrator 18.0.0, SVG Export Plug-In . SVG Version: 6.00 Build 0)  -->
<!DOCTYPE svg PUBLIC "-//W3C//DTD SVG 1.1//EN" "http://www.w3.org/Graphics/SVG/1.1/DTD/svg11.dtd">
<svg version="1.1" id="Layer_1" xmlns="http://www.w3.org/2000/svg" xmlns:xlink="http://www.w3.org/1999/xlink" x="0px" y="0px"
	 viewBox="0 0 595.3 841.9" enable-background="new 0 0 595.3 841.9" xml:space="preserve">
<path fill="#57702F" d="M517.7,163.9c-0.8,0.1-1.4,0.2-1.8,0.2c-6.1,0.6-12.5,1.3-17.8,4.4c-2.1,1.2-4,2.8-4.9,5.1
	c-0.8,2-0.6,4.3-0.3,6.5c0.7,5.3,3.6,9.1-2.3,10.8c-5.1,1.5-10.4,2.6-15.5,4.1c-2.9,0.8-6,1.7-9.1,2.5c-5.4,1.5-10.6,3.6-15.9,5.2
	c2.4-3.9,5.9-7.1,9.3-10.1c1.7-1.5,3.4-3.1,5.1-4.6c5.4-4.9,6.4-10.4,6.5-17.5c0.1-4.7-0.4-9.4-1.3-14.4c-0.4-2.5-1-5-1.6-7.7
	c-0.7-2.6-1.3-5.8-2.9-8.6c-1,3.2-2.9,5.1-4.7,6.9c-1.8,1.8-3.7,3.3-5.5,4.6c-3.7,2.6-7.2,4.5-10.6,6.3c-6.7,3.8-12.4,7.4-18.5,16.7
	c-5,7.6-7.7,14.9-7.5,21.7c0.1,6.6,2.7,12.7,7.3,18.8c-1,0.5-1.9,1.1-2.8,1.6c-8.8,5.1-15,7.7-15.8,8.1c0,0-2.2,1-6.5,2.8
	c-4.3,1.7-10.6,4.1-18.9,7.1c-8.2,3-18.5,6.6-29.7,12.4c-2.8,1.5-5.6,3.2-8.5,5c-1.4,1-2.8,1.9-4.2,2.9c-1.3,1-2.7,2-4.1,3.1
	c-5.5,4.1-11.2,8.7-17.1,13.5c-4.3,3.5-8.6,7.3-13,11.1c0.3-0.8,0.5-1.6,0.8-2.5c1.6-5.8,2.8-12.7,4-19.9c1.2-7.2,2.5-14.9,3.9-22.7
	c1.2-7.3,4.2-23.4,5.3-30.3c2.7,1.8,3.1,7,4.9,9.7c4.7,6.6,14.5,10.4,22.4,8.3c8.9-2.3,15.8-6.4,21.5-12.2
	c5.7-5.8,10.7-13.3,14.9-22.8c-5.3,0.7-9.6,0-13.4-1.3c-3.8-1.2-7-2.8-10.1-4.1c-6.3-2.7-11.9-4.7-22.4-2.1
	c-6.8,1.7-12.6,5-16.5,9.4c0.3-4.8,0.3-9,0.1-12c-0.2-3.5-0.5-5.6-0.5-5.6c-0.1-0.3-1-5.8-3.1-10.7c-0.6-1.4-1.2-2.7-1.9-3.8
	c2.2-1.5,4.8-3.4,7.7-4.9c2.9-1.2,5.7-4.7,7.9-8.2c4.5-7.1,6.5-16.5,4.1-24.2c-4.1-13.2-10.8-19.7-18.5-24.6
	c-5.8-3.6-12.2-6.2-18.4-9c-4.7-2.1-13.3-3.7-17-7.3c3.6,3.6,5.3,8.8,5.5,13.8c0.3,7.4-3.7,12-6,18.6c-2.9,8.2-4.4,15.5-1.6,24
	c2.2,6.9,5.7,11,11.5,14.4c1.4,0.8,3,1.6,4.7,2.4c1.7,0.8,3.6,2,5.7,3c3.4,1.6,7.2,2.2,11.4,2.1c0.4,1.5,0.9,3.1,1.2,4.8
	c1.1,4.9,1.3,9.9,1.4,10.2c0,0,0.3,1.9,0.5,5.2c0.2,3.3,0.2,8.1-0.2,13.8c-0.8,11.5-3.8,26.9-6.4,42.3c-1.3,7.7-2.6,15.4-3.9,22.7
	c-1.2,7.2-2.4,13.9-3.9,19.4c-1.5,5.4-3.3,9.6-4.8,12.4c-16.8,15.7-33.8,33.9-49.7,54.8c-8.7,11.5-17.1,23.8-24.9,36.7
	c0.7-5.9,1.7-12.8,2.6-19.8c1.1-8.9,2.2-17.7,2.6-24.5c0.2-3.5,0.1-6.3,0-8.4c-0.1-2-0.2-3.2-0.2-3.2c0-0.1-0.2-1-0.5-2.1
	c-0.1-0.5,3.2-5.7,3.6-6.4c1.7-3.4,3.5-6.7,5.3-10.1c0.6-1.1,1.2-2.3,1.4-3.5c0.2-1.1,0.1-2.2-0.1-3.3c-1.3-6.6-6.8-11.8-13-14.4
	c-6.7-2.8-13.9-2.7-20.8-4.1c-2.4-0.5-18.5-1.5-19.1-3c3.4,8.3,3.6,15.1,4.6,21.2c0.9,6.1,2.5,11.5,7.9,17.4
	c2.2,2.4,4.4,4.3,6.6,5.7c2.3,1.5,4.5,2.2,6.6,2.3c2.1,0.1,4.3-0.1,6.9-0.3c1.6-0.1,3.3-0.2,5.2-0.1c0,0.8,0,1.3,0,1.4
	c0,0,0.6,4.3,0.3,10.7c-0.4,6.5-1.5,15.3-2.6,24.1c-1.2,8.8-2.4,17.6-3.1,24.3c-0.4,3.3-0.7,6.1-0.9,8c-0.8,8.7-10.4,14.3-12.5,22.3
	c1.2-6.6,0.2-15.3-5.6-19.7c-3-2.3-6.8-3.5-10.3-4.8c-7.3-2.8-14.3-6.3-21-10.4c5,6.8,2.9,14.3,2.2,21.9c-0.4,4.7-0.7,9.5,0.4,14.2
	c1.2,5.7,4.6,11.2,10,13.5c2.1,0.9,10.3,1.7,10.9,4.5c0.5,2.2-4.5,7.9-5.7,10c-0.7,1.1-1.2,2.4-1.8,3.6l-1.6,3.4
	c-1.1,2.2-2.2,4.4-3.3,6.6c-2.3,4.4-4.6,8.8-7,13.2c-4.7,8.8-9.4,17.7-13.4,27c-2,4.6-3.8,9.4-5.4,14.2c-1.6,4.8-2.7,9.7-3.8,14.5
	c-2.1,9.6-3.8,19.1-5.2,28.5c-2.8,18.8-4.4,37-5.9,54.2c-0.2,2.2-0.3,4.3-0.5,6.5c-0.3-1.2-0.6-2.4-0.9-3.7
	c-1.4-6.1-2.8-13.4-4.4-21.3c-1.7-7.9-3.4-16.1-4.7-24.4c-2.8-16.7-4.5-33.5-5.1-46.2c-0.7-12.6-0.7-21.1-0.7-21.1
	c0-2.6-1.6-7.3-0.5-9.5c1.4-2.9,8.3-6.5,11-8.6c3.6-2.8,7.2-5.8,9.4-9.7c4.4-7.9,2-18.3-3.6-25.5c-4.9-6.3-12.2-11.7-19.3-15.2
	c-6.7-3.3-11.2-6.5-17-11.7c-2.2-2-4.4-4-7.1-5.1c8.9,9.2,3.1,21.7,0,31.9c-2.8,9.1-7,17.4-2.5,26.8c1.7,3.7,4.5,6.8,7.6,9.4
	c5.2,4.2,10.8,6.1,17.1,7.8c-0.5,4.8-0.7,9.2-0.7,9.5c0.2,4.8,0.1,9.7,0.3,14.6c0.1,1.8,2,17,0.4,17.5c-2.2,0.8-8.4-12-9.8-13.3
	c-1.1-1-2.3-2-3.6-2.7c-3.5-1.7-7.7-0.9-11.6,0.2c-8.2,2.2-17.5,1.3-26,1c4.8,5.4,7.1,11,10.8,16.8c5,8.2,10.4,16.7,18.9,21.2
	c5.7,3,8.9,0.7,14.3-1.5c4.4-1.8,7.1-8.3,9-3.4c2.1,5.3,3.3,19.1,4.4,24.7c1.1,5.9,2.3,11.8,3.6,17.7c1.6,7.8,3,15.1,4.4,21.4
	c1.4,6.3,2.9,11.5,4,15.1c0.4,1.3,0.7,2.3,1,3.2c-0.1,1-0.1,1.9-0.2,2.9c-0.6,8.3-0.2,16.4,0.3,24c1.3,15.3,4.1,29.1,7.2,41.1
	c1.9,7.2,3.8,13.6,5.7,19.5c-6.6-7.4-15.7-16.6-25.5-25.1c-3.5-3-7.1-6-10.6-8.8c0.9,0.3,1.7,0.5,2.6,0.7c7.6-2.8,14.2-12,12.3-20.2
	c-1.9-8.2-3.7-17.1-8.4-24.3c-1.3-2-2.8-4.1-2.8-6.5c-3.5,13.2-18.5,19.3-17.5,34c0.2,2.9,0.9,5.3,1.9,7.4c-2.4-1.7-4.6-3.3-6.8-4.7
	c-8.3-5.6-14.1-9-14.1-9c-0.2-0.2-4.2-2.2-8.3-3.9c-4.1-1.7-8.2-3-8.5-2.4c-0.3,0.7,3.1,3.3,6.6,5.8c1.4,1,2.8,2,4,2.9
	c-3.1-0.3-6.1,0-9,1.1c-8.5,3.3-13.6,7.9-17.4,13.4c-3.8,5.5-6.5,12-9.9,19.9c8.8-1.2,15.1,0.9,20.9,2.1c5.8,1.3,11,1.8,18.3-1.1
	c8-3.2,11.1-8.8,15.1-16.1c0.2,0.4,0.3,0.8,0.5,1.2c-0.9-1.8-3-10.5,1.7-7.2c7.6,5.3,16.9,12.3,25.6,19.8
	c9.9,8.6,19.1,17.9,25.6,25.3c3.2,3.7,5.8,6.8,7.6,9.1c0.2,0.3,0.4,0.5,0.5,0.7c2.4,6.8,4.4,12.4,5.8,16.2c1.6,4.4,2.5,6.8,2.5,6.8
	c1.3,3.3,4,5.4,6.1,4.6c2.1-0.8,2.8-4.2,1.6-7.5c0,0-0.9-2.3-2.5-6.7c-1.6-4.4-4-10.9-6.8-19.1c-2.8-8.3-6.1-18.3-9.1-30
	c-0.1-0.5-0.3-1.1-0.4-1.6c0.5-0.3,0.9-0.7,0.8-1c0,0-0.4-1.6-0.4-4.5c0-2.9,0.6-7.2,2.5-12.2c1.8-5,4.8-10.7,8.2-16.7
	c3.3-6,7.3-12.2,11.5-18.2c8.4-12.1,18.1-23.1,25.9-30.8c7.8-7.7,13.5-12.4,13.5-12.4c0.2-0.2,3.8-3.6,7.3-6.9
	c0.4-0.4,0.9-0.9,1.3-1.3c0,0.3-0.1,0.7-0.1,1c2.2,6.9,9.2,16.3,14.7,16.4c6.4,0.1,8.9-3.6,13.4-7.1c4.4-3.5,11.9-4.4,17.4-4.7
	c1-0.1,2.1-0.1,3.2-0.1c-7.1-2.4-14.5-6.6-17.8-13.5c-3-6.2-7.2-10.8-14.8-10.8c-8.8-0.1-13.1,5.3-15.1,14.5
	c-3.3,1.7-16.4,8.2-16.4,12.7c0-4,3.2-10.7,3.2-14.6c0-5.8-0.2-12.1-4.1-16.5c-4.5-5.1-8.6-6.6-15.3-7.4c-8.2-1.1-16.7-6.3-24.1-10
	c3.5,1,6.3,3.7,8.3,6.8c4.1,6.6,4.2,10.4,1.6,17.1c-2.3,6-4.6,12.9-2.2,19.3c1.7,4.4,4.5,7.2,9,9.3c3.6,1.7,8.4,2.8,14.2,3.5
	c-0.3,0.3-0.6,0.6-1,1c-8,7.9-18,19.2-26.6,31.6c-4.3,6.2-8.3,12.5-11.8,18.7c-3.4,6.1-6.6,12-8.5,17.5c-0.5,1.3-0.9,2.6-1.2,3.8
	c-1.3-7-2.4-14.4-3.1-22.3c-0.5-7.3-0.8-15-0.3-22.9c0.5-8,1.2-16.4,1.9-25c1.4-17.1,3.1-35.2,5.8-53.6c1.4-9.2,3-18.6,5.1-27.9
	c0.8-3.7,1.5-8,3.1-11.4c4.3,7.6,10.7,13.1,19.8,14c8.1,0.8,16.3-2.3,22.3-7.8c6.7-6.3,9.1-15.5,15.3-21.9c5-5.1,12.6-5.2,19.3-6.3
	c-3-4.3-21.4-3.9-26.6-5.1c-8.4-2-15-6.5-24.1-4.3c-7.2,1.8-9.9,6.3-15,10.7c-3.7,3.2-3.2-0.4-2.1-3.5c2.4-6.4,6.6-12,9.8-18
	c2.3-4.4,4.7-8.8,7-13.3c0.3-0.6,0.6-1.2,0.9-1.8c1.8-2.8,4.2-6.3,7.2-10.2c5.6-7.3,13.5-15.9,22.9-23.5c2.3-1.9,2.7,6.2,2.7,7.2
	c0,4.8,0.3,8.8,4.3,12.2c5.8,5,11.6,1.6,18,3.2c4.9,1.2,10.6,4.5,14.8,7.2c0.3-0.9,0.2-1.9,0-2.9c-1.8-11.2-3.8-27.2-16.1-31.5
	c-2.7-0.9-8.3-0.9-9.9-3.7c-1.5-2.7,6.9-5.9,9.4-7.2c8.6-4.6,17.7-8.5,26.9-11.8c8.2-3,14.5-5.2,17.5-6.3c2.2,2.5,5.5,5,9.4,6.6
	c4.8,2.1,10.3,2.8,15,1.1c4-1.5,7.2-3.3,9.6-5.3c2.4-2,4.3-4.3,6-6.7c3.3-4.9,5.8-10.6,10.2-17.3c-7.8-1.1-15.2-3.3-22.3-6.7
	c-2.5-1.2-5-2.3-7.6-3.1c-4.9-1.7-10.7-2.7-15,0.1c-2.6,1.7-4.2,4.7-5.3,7.6c-1.2,3.4-1.9,7-1.9,10.6c0,2.8,1.4,6.3-0.4,8.1
	c-3.2,3.2-13,4.7-17.2,6.2c-11.8,4.3-27.6,10.8-41.7,20.5c-6.3,4.2-12.1,9-17.4,13.9c1.1-1.5,2.1-3,3.2-4.6c1.4-2.2,2.8-4.4,4.1-6.7
	c0.7-1.1,1.2-2.3,1.8-3.5l1.7-3.3c2.2-4.4,4.4-8.8,6.9-13c9.4-17.1,20.1-33.2,31.3-48c15.9-20.9,33.1-39.2,49.9-54.8
	c-1.3,1.2,4.7,14.4,5.4,15.8c3,5.6,7.2,10.8,12.8,13.9c6.9,3.9,15.5,4.5,22.8,1.6c6.6-2.5,12.1-1.6,19.1-1.7c1.9,0,3.8,0.1,5.8,0.5
	c2,0.4,4,1.2,5.9,2.8c0.1-5.3-2.6-10.3-5-14.3c-2.5-4.1-4.9-7.5-7-10.7c-4.4-6.4-9.6-11.9-20.1-17c-4.3-2.1-9.2-3.9-14.1-4.6
	c-3.6-0.6-7.5-0.4-10.5,0.2c1.9-1.6,3.8-3.2,5.7-4.8c5.8-4.7,11.4-9.2,16.8-13.3c1.4-1,2.7-2,4-3c1.3-0.9,2.6-1.8,3.9-2.7
	c2.6-1.7,5.2-3.2,7.8-4.6c8.3-4.3,16.2-7.4,23.2-10c0.6-0.1,1.2-0.1,1.9-0.2c2.9-0.4,7.2-0.7,12.3-1c10.2-0.6,23.8-0.3,37.3,1.3
	c4,0.5,23.7,1.6,22.5,7.6c-0.7,3.6-11.1,2.5-13.4,6.1c-4.3,6.6,4.6,19.7,8.2,25.2c5.5,8.3,12.2,15.9,16.2,25.1
	c0.7-8.2,5.6-15.8,11.7-21.2c1.9-1.6,4-3.2,5.3-5.3c1.8-3.2,1.5-7.2,0-10.6c-1.5-3.4-3.9-6.2-6.4-8.9c-1.3-1.4-9.6-10.6-7.8-10
	c4.9,1.5,8.8,3,11.6,4c2.8,1.1,4.3,1.7,4.3,1.7c0.2,0.1,3.2,1.1,6.7,2.2c-0.1,0.1-0.1,0.2-0.2,0.3c-0.8,1.4,1.4,6.1,1.7,7.6
	c0.5,2.5,0.5,4.9,0.9,7.4c0.8,5.4,3.4,10.4,6.8,14.6c3.9,5,9.9,11,16.6,11.1c2.9,0,5.8-0.6,8.7-1.1c13.1-2.1,24.2-1.3,35.5,6.4
	c-5.8-8.9-11.1-18.1-16-27.5c-3.9-7.5-2.1-15.3-5.7-23.2c-1.6-3.5-3.6-6.8-6.5-9.3c-4.3-3.7-10.3-5.1-15.9-4.5
	c-5.6,0.6-11,3.1-15.5,6.4c-2.2,1.6-4.9,6.8-7.3,7.5c-2.4,0.7-5-2.6-7.6-3.1c0,0-1.6-0.6-4.5-1.7c-2.9-1-6.9-2.6-11.9-4.1
	c-10-3.1-23.6-6.4-37.4-8.1c-11.7-1.5-23.6-1.8-33.3-1.6c2.2-0.8,4.2-1.6,5.8-2.3c4.4-1.8,6.8-2.9,6.8-2.9c0.8-0.3,7.6-3.5,16.3-9.1
	c4.8-3,10.4-6.5,16.5-9.8c0.2-0.1,0.5-0.1,0.7-0.2c3.1-1.2,6.2-2.7,9.1-4.7c1.8-0.8,3.6-1.6,5.4-2.4c3-1.2,5.9-2.2,9.1-3.2
	c3.1-1,6.1-2.1,9-3.2c5.8-2.1,11.1-4,15.7-5.5c1.7-0.6,3.3-1,4.8-1.4c2.2,2,6.1,3.9,10.6,4.3c4.7,0.5,10.1-0.6,14-3.7
	c6.7-5.3,9.6-10.7,11-16.2c1.4-5.5,1.4-11.4,1.5-18.5C534.1,161,522.6,163.2,517.7,163.9z M88,680.3L88,680.3l0,0.1
	C88,680.3,88,680.3,88,680.3L88,680.3L88,680.3z"/>
<text transform="matrix(1 0 0 1 53.103 163.6084)"><tspan x="0" y="0" font-family="'MyriadPro-Regular'" font-size="12">Designed by DreamyPosy.com</tspan><tspan x="0" y="14.4" font-family="'MyriadPro-Regular'" font-size="12">Personal use only</tspan></text>
<text transform="matrix(1 0 0 1 53.103 203.1956)"><tspan x="0" y="0" font-family="'SourceSansPro-ExtraLight'" font-size="12">Do not share this template directly</tspan><tspan x="0" y="14.4" font-family="'SourceSansPro-ExtraLight'" font-size="12">Please refer to DreamyPosy.com to get this free file</tspan></text>
</svg>
