<?xml version="1.0" standalone="no"?>
<!DOCTYPE svg PUBLIC "-//W3C//DTD SVG 20010904//EN"
 "http://www.w3.org/TR/2001/REC-SVG-20010904/DTD/svg10.dtd">
<svg version="1.0" xmlns="http://www.w3.org/2000/svg"
 width="700.000000pt" height="1080.000000pt" viewBox="0 0 700.000000 1080.000000"
 preserveAspectRatio="xMidYMid meet">
<metadata>
Created by potrace 1.15, written by Peter Selinger 2001-2017
</metadata>
<g transform="translate(0.000000,1080.000000) scale(0.100000,-0.100000)"
fill="#000000" stroke="none">
<path d="M0 400 l0 -400 3500 0 3500 0 0 400 0 400 -3500 0 -3500 0 0 -400z
m1395 106 c25 -11 33 -19 29 -30 -7 -19 -5 -19 -40 -1 -36 18 -55 19 -78 2
-28 -21 -9 -45 49 -62 87 -25 108 -74 54 -127 -29 -29 -33 -30 -90 -25 -68 6
-72 8 -64 29 5 13 12 14 40 5 50 -15 100 1 100 33 0 16 -8 28 -25 36 -87 40
-105 51 -108 67 -14 70 53 106 133 73z m587 -48 l3 -62 36 32 c20 18 45 32 55
32 14 0 9 -9 -21 -40 l-39 -40 42 -60 c40 -57 41 -60 20 -60 -16 0 -32 14 -53
45 -16 25 -33 45 -37 45 -5 0 -8 -20 -8 -45 0 -38 -3 -45 -20 -45 -19 0 -20 7
-20 130 0 122 1 130 20 130 16 0 19 -8 22 -62z m-1353 -24 c12 -15 21 -40 21
-55 0 -29 0 -29 -65 -29 -72 0 -83 -12 -44 -51 17 -17 30 -20 65 -16 43 4 59
-5 28 -17 -45 -17 -106 3 -123 41 -45 98 56 206 118 127z m456 3 c20 -16 28
-35 32 -69 5 -42 3 -50 -25 -78 -41 -41 -83 -41 -124 0 -28 28 -30 36 -25 78
9 82 84 119 142 69z m622 8 c30 -21 44 -75 32 -120 -25 -88 -143 -88 -168 0
-20 72 20 135 84 135 17 0 40 -7 52 -15z"/>
<path d="M986 424 c-50 -50 -21 -144 44 -144 48 0 80 50 66 104 -13 53 -75 75
-110 40z"/>
</g>
</svg>
