<?xml version="1.0" encoding="UTF-8" standalone="no"?>
<svg
   xmlns:dc="http://purl.org/dc/elements/1.1/"
   xmlns:cc="http://creativecommons.org/ns#"
   xmlns:rdf="http://www.w3.org/1999/02/22-rdf-syntax-ns#"
   xmlns:svg="http://www.w3.org/2000/svg"
   xmlns="http://www.w3.org/2000/svg"
   xmlns:sodipodi="http://sodipodi.sourceforge.net/DTD/sodipodi-0.dtd"
   xmlns:inkscape="http://www.inkscape.org/namespaces/inkscape"
   viewBox="0 0 1440 320"
   version="1.1"
   id="svg4"
   sodipodi:docname="squiggle2.svg"
   inkscape:version="0.92.4 (f8dce91, 2019-08-02)">
  <metadata
     id="metadata10">
    <rdf:RDF>
      <cc:Work
         rdf:about="">
        <dc:format>image/svg+xml</dc:format>
        <dc:type
           rdf:resource="http://purl.org/dc/dcmitype/StillImage" />
        <dc:title></dc:title>
      </cc:Work>
    </rdf:RDF>
  </metadata>
  <defs
     id="defs8" />
  <sodipodi:namedview
     pagecolor="#ffffff"
     bordercolor="#666666"
     borderopacity="1"
     objecttolerance="10"
     gridtolerance="10"
     guidetolerance="10"
     inkscape:pageopacity="0"
     inkscape:pageshadow="2"
     inkscape:window-width="1920"
     inkscape:window-height="1170"
     id="namedview6"
     showgrid="false"
     inkscape:zoom="0.27291667"
     inkscape:cx="720"
     inkscape:cy="160"
     inkscape:window-x="0"
     inkscape:window-y="0"
     inkscape:window-maximized="1"
     inkscape:current-layer="svg4" />
  <path
     d="m 14.656489,547.41985 20,-26.7 c 20,-26.3 60,-80.3 100.000001,-106.6 40,-26.7 80,-26.7 120,21.3 40,48 80,144 120,144 40,0 80,-96 120,-144 40,-48 80,-48 120,-32 40,16 80,48 120,74.7 40,26.3 80,48.3 120,48 40,0.3 80,-21.7 120,-37.4 40.00001,-16.3 80.00001,-26.3 120.00001,-10.6 40,16.3 80,58.3 120,85.3 40,27 80,37 120,5.3 40,-32.3 80,-106.3 100,-144 l 20,-37.3 v -32 h -20 c -20,0 -60,0 -100,0 -40,0 -80,0 -120,0 -40,0 -80,0 -120,0 -40,0 -80,0 -120.00001,0 -40,0 -80,0 -120,0 -40,0 -80,0 -120,0 -40,0 -80,0 -120,0 -40,0 -80,0 -120,0 -40,0 -80,0 -120,0 -40,0 -80,0 -120,0 -40,0 -80,0 -120,0 -40.000001,0 -80.000001,0 -100.000001,0 h -20 z"
     id="path2"
     inkscape:connector-curvature="0"
     style="fill:#0099ff;fill-opacity:1" />
</svg>
